<svg id="圖層_1" data-name="圖層 1" xmlns="http://www.w3.org/2000/svg" viewBox="0 0 1280 1024"><defs><style>.cls-1{fill:#f3efe8;}.cls-2,.cls-3,.cls-4{fill:none;}.cls-2,.cls-4{stroke:#e86754;}.cls-2,.cls-3,.cls-4,.cls-5{stroke-miterlimit:10;}.cls-2{stroke-width:9px;}.cls-3{stroke:#9fb3aa;stroke-width:13px;}.cls-4{stroke-width:6px;}.cls-5{fill:#9f463a;stroke:#9f463a;stroke-width:2px;}</style></defs><title>背景</title><rect class="cls-1" x="-26" y="-23" width="1327" height="1064"/><line class="cls-2" x1="521.05" y1="438.32" x2="730.5" y2="438.5"/><polygon class="cls-3" points="753.51 284.35 639.46 212.53 637.49 212.53 523.43 284.35 523.43 446.9 616.2 446.9 616.2 484.33 753.51 484.33 753.51 284.35"/><rect class="cls-3" x="523.43" y="484.33" width="92.77" height="27.67"/><path class="cls-4" d="M658.11,277.25c-7.53.36-15.87,2.88-20.89,8.08-3.93,4.07-7.27,10.86-8.66,16.37-3,11.62.18,25-6.73,35a232.63,232.63,0,0,1-27,32.23c-10.32,10.37-22,19.17-32,29.84,8,4.85,18.93,6.9,28,8.86a172.92,172.92,0,0,0,31.38,3.88c1.94,3.33,3.85,6.68,5.76,10L634,432h46V420.06l-12.59.37-8.27-15.67,15.11-11.2c3.38-2.51,7.18-9.21,9.48-12.8a60.71,60.71,0,0,0,8-19.57,86.78,86.78,0,0,0,1.84-21.52c0-1.38-1.52-15.28-.23-15.9l18-8.58-18-9.33c-1.08-.56-2.66-8.27-3.38-9.9-4.74-10.85-14.51-17.19-25.85-18.52A36.46,36.46,0,0,0,658.11,277.25Z"/><rect class="cls-5" x="663.54" y="301.63" width="12.26" height="12.72" rx="5.05"/></svg>